<svg width="17" height="18" viewBox="0 0 17 18" fill="none" xmlns="http://www.w3.org/2000/svg">
<path d="M8.49027 0.665529C6.80951 0.667456 5.16704 1.16821 3.77048 2.10448C2.37392 3.04075 1.28597 4.37051 0.644144 5.92568C0.00231959 7.48085 -0.164562 9.19159 0.164589 10.8417C0.493741 12.4918 1.30415 14.0072 2.49338 15.1963C3.68261 16.3854 5.19728 17.1948 6.84591 17.5223C8.49455 17.8497 10.2031 17.6805 11.7557 17.0359C13.3083 16.3914 14.6352 15.3006 15.5686 13.9012C16.5021 12.5019 17.0002 10.857 17 9.17427C16.9994 8.05616 16.7787 6.94911 16.3507 5.91637C15.9227 4.88364 15.2957 3.94543 14.5055 3.15531C13.7153 2.36519 12.7773 1.73865 11.7452 1.31145C10.7131 0.884253 9.6071 0.664762 8.49027 0.665529ZM8.80653 12.395L4.1201 7.45674H13.493L8.80653 12.395Z" fill="#030303"/>
</svg>
